<svg xmlns="http://www.w3.org/2000/svg" enable-background="new 0 0 2500 2500" viewBox="0 0 2500 2500"><path fill="#ffd400" d="M1014.61,1999.12c0,0,49.66,1.36,57.31-13.46c7.65-14.82-4.46-18.38,9.34-26.7
			c13.81-8.32,46.22-1.25,54.44-22.92c8.22-21.67-12.99-26.17-8.73-44.19s53.23-80.34-12.28-106.53
			c-65.51-26.19-62.45,51.51-68.2,53.47c-5.75,1.97-17.59,0.58-21.1,11.89c-3.5,11.31,6.23,25.1-1.65,31.59
			c-7.88,6.49-26.73,14.79-28.4,32.03C993.67,1931.54,1021.55,1979.62,1014.61,1999.12z"/><path fill="#060f11" d="M995.27,2031.4c-0.58,0-1.17-0.17-1.69-0.52c-1.38-0.93-1.74-2.81-0.8-4.19
				c43.57-64.21,75.67-120.32,95.4-166.76c0.65-1.53,2.43-2.24,3.95-1.6c1.53,0.65,2.25,2.42,1.6,3.95
				c-19.89,46.8-52.18,103.25-95.97,167.79C997.18,2030.94,996.23,2031.4,995.27,2031.4z"/><path fill="#060f11" d="M1073.28,1901.89c-0.67,0-1.33-0.22-1.86-0.65c-0.61-0.48-14.9-11.95-16.25-33.33
				c-0.11-1.66,1.15-3.09,2.82-3.2c1.7-0.1,3.1,1.16,3.2,2.82c0.99,15.64,9.99,25.3,12.99,28.11c12.6-2.88,25.65-21.42,25.78-21.61
				c0.95-1.37,2.83-1.7,4.2-0.75c1.37,0.95,1.7,2.83,0.75,4.19c-0.63,0.91-15.61,22.2-31.2,24.38
				C1073.56,1901.88,1073.42,1901.89,1073.28,1901.89z"/><path fill="#060f11" d="M1042.74,1957.11c-0.7,0-1.41-0.24-1.98-0.74c-0.52-0.46-12.72-11.38-10.75-32.31
				c0.16-1.66,1.69-2.88,3.28-2.72c1.66,0.16,2.87,1.63,2.72,3.28c-1.67,17.73,8.3,26.83,8.73,27.21c1.24,1.1,1.36,3.01,0.26,4.25
				C1044.4,1956.77,1043.57,1957.11,1042.74,1957.11z"/><path fill="#fff" d="M1021.05,2106.96c0,0,10.29-21.61-3.77-27.76c-14.07-6.14-39.12,0-39.12,0s19.56-16.61,14.41-30.03
						s-23.33-20.25-42.21-6.14c0,0,46.45-50.99,32.26-70.3c-25.74-35.04-95.06,14.11-102.95,58.83c0,0-20.25-90.23-55.25-88.18
						c-35,2.05-13.38,61.43-5.83,74.4"/><path fill="#060f11" d="M1021.05,2109.98c-0.43,0-0.87-0.09-1.29-0.29c-1.5-0.71-2.14-2.51-1.43-4.01
						c1.49-3.14,4.84-12.63,2.55-18.74c-0.86-2.3-2.44-3.92-4.81-4.96c-12.96-5.66-36.96,0.11-37.2,0.17
						c-1.34,0.33-2.76-0.31-3.4-1.56c-0.64-1.24-0.34-2.76,0.73-3.67c4.98-4.24,17.13-17.31,13.55-26.66
						c-2.08-5.43-6.59-9.5-12.37-11.17c-7.76-2.24-16.72,0.02-25.22,6.37c-1.23,0.93-2.99,0.77-4.03-0.39
						c-1.05-1.15-1.04-2.91,0-4.06c12.45-13.68,42.49-52.28,32.05-66.49c-8.76-11.92-22.14-11.72-31.84-9.46
						c-28.89,6.75-60.82,39.32-65.71,67.03c-0.25,1.41-1.46,2.46-2.9,2.49c-1.45,0.04-2.69-0.95-3.01-2.35
						c-5.48-24.4-25.46-87.39-52.13-85.83c-6.55,0.38-11.02,2.97-13.67,7.9c-8.58,15.98,4.03,51.26,10.26,61.97
						c0.84,1.44,0.35,3.28-1.09,4.12c-1.44,0.84-3.29,0.35-4.12-1.09c-5.37-9.22-21-48.05-10.37-67.86
						c3.67-6.83,9.93-10.56,18.63-11.06c29.63-1.74,48.76,55.02,55.57,79.58c10.29-27.06,39.52-54.31,67.16-60.76
						c16.2-3.78,29.72,0.39,38.07,11.76c11.28,15.35-9.3,45.7-22.7,62.58c5.72-1.67,11.4-1.77,16.71-0.24
						c7.61,2.2,13.56,7.6,16.33,14.81c3.63,9.47-2.81,19.78-8.42,26.42c8.92-1.27,22.24-2.12,31.52,1.93
						c3.9,1.7,6.61,4.53,8.05,8.39c3.65,9.77-2.5,22.87-2.76,23.43C1023.25,2109.34,1022.18,2109.98,1021.05,2109.98z"/><path fill="#fff" d="M1806.49,478.97c0.03-0.21,0.05-0.42,0.08-0.64c3.25-24.69,25.26-43.14,50.15-42.32
				c3.64,0.12,7.17,0.63,10.58,1.52c10.16-28.3,38.19-48.07,70.48-45.74c34.35,2.48,62.02,30.5,64.12,64.88
				c0.83,13.58-2.26,26.39-8.24,37.4"/><path fill="#060f11" d="M1993.65,497.09c-0.48,0-0.98-0.12-1.44-0.37c-1.46-0.79-2.01-2.62-1.21-4.09
				c5.91-10.9,8.64-23.27,7.88-35.78c-2.01-33-28.38-59.68-61.33-62.06c-29.78-2.14-57.41,15.85-67.43,43.75
				c-0.52,1.47-2.08,2.29-3.59,1.9c-3.22-0.83-6.56-1.31-9.92-1.42c-23.39-0.76-44.03,16.67-47.06,39.7l-0.07,0.58
				c-0.19,1.65-1.68,2.85-3.33,2.66c-1.66-0.18-2.85-1.67-2.66-3.33l0.08-0.68c3.44-26.08,26.91-45.82,53.24-44.95
				c2.9,0.1,5.78,0.43,8.6,1c11.65-29,41.14-47.49,72.58-45.22c35.95,2.59,64.72,31.7,66.91,67.71c0.83,13.64-2.15,27.13-8.6,39.02
				C1995.75,496.52,1994.72,497.09,1993.65,497.09z"/><path fill="#fff" d="M1827.78,484.91c0-15.07,12.22-27.28,27.28-27.28"/><path fill="#060f11" d="M1827.78,487.93c-1.67,0-3.01-1.35-3.01-3.01c0-16.71,13.59-30.3,30.3-30.3c1.67,0,3.01,1.35,3.01,3.01
				c0,1.66-1.35,3.01-3.01,3.01c-13.38,0-24.27,10.89-24.27,24.27C1830.79,486.58,1829.44,487.93,1827.78,487.93z"/><path fill="#fff" d="M1977.59,446.82c1.41,4.48,2.17,9.25,2.17,14.19"/><path fill="#060f11" d="M1979.76,464.03c-1.67,0-3.01-1.35-3.01-3.01c0-4.54-0.68-9.01-2.03-13.28c-0.5-1.59,0.38-3.28,1.96-3.78
				c1.59-0.5,3.28,0.38,3.78,1.97c1.54,4.86,2.31,9.94,2.31,15.1C1982.78,462.68,1981.43,464.03,1979.76,464.03z"/><path fill="#fff" d="M1932.62,413.87c15.39,0,29.05,7.36,37.65,18.76"/><path fill="#060f11" d="M1970.27,435.65c-0.92,0-1.82-0.41-2.41-1.2c-8.42-11.16-21.27-17.56-35.24-17.56
				c-1.67,0-3.01-1.35-3.01-3.01c0-1.66,1.35-3.01,3.01-3.01c15.88,0,30.48,7.27,40.06,19.96c1,1.33,0.74,3.22-0.59,4.22
				C1971.54,435.45,1970.9,435.65,1970.27,435.65z"/><path fill="#fff" d="M567.3,524.19c0.04-0.3,0.07-0.6,0.11-0.91c4.63-35.14,35.95-61.4,71.37-60.24
				c5.18,0.17,10.2,0.9,15.06,2.16c14.46-40.29,54.35-68.41,100.32-65.1c48.9,3.53,88.28,43.42,91.26,92.35
				c1.18,19.33-3.22,37.56-11.73,53.23"/><path fill="#060f11" d="M833.69,548.71c-0.48,0-0.98-0.12-1.44-0.37c-1.46-0.79-2.01-2.63-1.21-4.09
				c8.54-15.71,12.47-33.56,11.37-51.61c-2.9-47.61-40.93-86.1-88.47-89.53c-42.9-3.08-82.82,22.86-97.27,63.11
				c-0.52,1.47-2.08,2.29-3.59,1.9c-4.68-1.21-9.52-1.9-14.4-2.06c-33.91-1.1-63.89,24.19-68.29,57.62l-0.11,0.85
				c-0.19,1.65-1.73,2.84-3.33,2.66c-1.66-0.18-2.85-1.68-2.66-3.33l0.12-0.97c4.8-36.46,37.67-64.07,74.46-62.85
				c4.41,0.14,8.79,0.69,13.07,1.62c16.09-41.33,57.82-67.79,102.43-64.56c50.54,3.65,90.97,44.56,94.05,95.18
				c1.17,19.18-3.01,38.15-12.09,54.86C835.79,548.14,834.76,548.71,833.69,548.71z"/><path fill="#fff" d="M597.6,532.64c0-21.45,17.39-38.83,38.83-38.83"/><path fill="#060f11" d="M597.59,535.66c-1.67,0-3.01-1.35-3.01-3.01c0-23.07,18.77-41.85,41.85-41.85c1.67,0,3.01,1.35,3.01,3.01
				c0,1.66-1.35,3.01-3.01,3.01c-19.75,0-35.82,16.07-35.82,35.82C600.61,534.31,599.26,535.66,597.59,535.66z"/><path fill="#fff" d="M810.83,478.43c2.01,6.37,3.09,13.16,3.09,20.2"/><path fill="#060f11" d="M813.92,501.64c-1.67,0-3.01-1.35-3.01-3.01c0-6.58-0.99-13.08-2.95-19.29c-0.5-1.59,0.38-3.28,1.97-3.78
				c1.59-0.5,3.28,0.38,3.78,1.97c2.14,6.8,3.23,13.91,3.23,21.1C816.94,500.29,815.59,501.64,813.92,501.64z"/><path fill="#fff" d="M746.82,431.53c21.9,0,41.34,10.48,53.59,26.7"/><path fill="#060f11" d="M800.41,461.25c-0.92,0-1.82-0.41-2.41-1.2c-12.24-16.21-30.89-25.51-51.18-25.51
				c-1.67,0-3.01-1.35-3.01-3.01c0-1.66,1.35-3.01,3.01-3.01c22.2,0,42.61,10.17,55.99,27.9c1,1.33,0.74,3.22-0.59,4.22
				C801.68,461.05,801.05,461.25,800.41,461.25z"/><path fill="#e7ebfb" d="M1296.29,1351.78l-1.15,1.23c-19,19.84-49.76,22.75-71.98,6.59c-127.56-92.7-302.93-88.83-426.23,9.5
						c-21.45,17.12-52.33,15.55-72.21-3.41l-1.19-1.19c-23.94-22.91-22.6-61.83,3.26-82.51
						c162.65-130.05,394.32-135.18,562.56-12.53C1316.14,1289,1319.2,1327.84,1296.29,1351.78z"/><path fill="#e7ebfb" d="M1581.44,999.06l-1.15,1.23c-19.92,20.84-52.75,22.95-74.85,4.4
						c-141.85-118.86-320.12-181.53-507.33-177.36c-187.24,4.14-362.53,74.7-498.98,199.73c-21.26,19.5-54.13,18.88-74.97-1.07
						l-1.19-1.15c-23.14-22.14-22.45-59.07,1.15-80.71c156.33-143.11,357.09-223.82,571.49-228.61
						c214.4-4.75,418.53,66.96,581.07,202.98C1601.25,939.03,1603.58,975.92,1581.44,999.06z"/><path fill="#e7ebfb" d="M1439.06,1175.23l-1.11,1.19c-19.88,20.76-52.17,22.52-74.62,4.6c-209.99-167.36-512-160.62-714.33,15.9
						c-21.68,18.89-54.01,18.58-74.77-1.3l-1.19-1.11c-23.41-22.41-22.49-60.06,1.92-81.4c243.05-212.56,606.35-220.64,858.59-19.08
						C1458.86,1114.25,1461.47,1151.79,1439.06,1175.23z"/><path fill="#ff452d" d="M917.14,1747.88l-57.17-54.68c-5.58-5.33-5.77-14.18-0.44-19.76l233.64-244.27
							c5.33-5.58,14.18-5.77,19.76-0.44l57.17,54.68c5.58,5.33,5.77,14.18,0.44,19.76l-233.64,244.27
							C931.56,1753.02,922.71,1753.21,917.14,1747.88z"/><path fill="#ff452d" d="M1174.61,1686.2l-54.68,57.17c-5.33,5.58-14.18,5.77-19.76,0.44L855.9,1510.17
							c-5.58-5.33-5.77-14.18-0.44-19.76l54.68-57.17c5.33-5.58,14.18-5.77,19.76-0.44l244.27,233.64
							C1179.74,1671.78,1179.94,1680.62,1174.61,1686.2z"/><path fill="#fff" d="M1523.1,457.33c-0.84,0-1.68-0.35-2.28-1.04c-3.01-3.47-4.55-8.09-4.22-12.66
					c0.32-4.58,2.5-8.93,5.97-11.94c1.25-1.09,3.16-0.96,4.25,0.3c1.09,1.26,0.96,3.16-0.3,4.25c-2.24,1.94-3.69,4.86-3.9,7.81
					c-0.21,2.95,0.82,6.05,2.76,8.29c1.09,1.26,0.96,3.16-0.3,4.25C1524.5,457.09,1523.8,457.33,1523.1,457.33z"/><path fill="#fff" d="M1659,475.78c-0.12,0-0.24-0.01-0.36-0.02c-1.65-0.2-2.83-1.7-2.64-3.35c0.98-8.27-0.71-16.84-4.76-24.12
					c-4.05-7.28-10.43-13.23-17.98-16.76c-1.51-0.71-2.16-2.5-1.46-4.01c0.7-1.51,2.5-2.16,4.01-1.45
					c8.69,4.06,16.04,10.91,20.7,19.29c4.66,8.38,6.61,18.24,5.48,27.76C1661.81,474.65,1660.51,475.78,1659,475.78z"/><polygon fill="#ffc1a4" points="1707.38 747.77 1598.76 772.57 1577.27 697.4 1568.98 668.4 1624.65 616.84 1657.98 585.96"/><path fill="#07070f" d="M1624.65,616.84c-1.63,39.17-21.25,67.82-47.39,80.56l-8.28-29L1624.65,616.84z"/><path fill="#ffc1a4" d="M1647.63,593.09c0.69,57.49-36.44,94.3-78.32,94.81c-41.88,0.51-72.64-35.48-73.33-92.97
							c-0.69-57.49,32.96-104.89,74.83-105.4S1646.94,535.59,1647.63,593.09z"/><path fill="#ffc1a4" d="M1500.07,559.46c0,0-13.9,32.37-11.81,38.43c2.09,6.06,18.05,7.71,18.05,7.71L1500.07,559.46z"/><path fill="#07070f" d="M1676.6,657.69c0,0-43.64,0.33-55.74-32.81c0,0,23.32-50.9,2.23-58.57
							c-21.09-7.67-23.05,26.61-23.05,26.61l-15.18-1.5l-0.64-47.89c0,0-33.65-4.84-39.97-21.5c0,0-89.63,20.83-84.02-62.1
							c2.46-36.39,119.32-80.88,169.69-65.03c54.84,17.26,44.29,80.2,44.29,80.2s42.52-12.37,60.72,37.71
							C1753.12,562.9,1676.6,657.69,1676.6,657.69z"/><path fill="#060606" d="M1531.6,569.09c-1.6,5.1-5.76,8.36-9.3,7.29c-3.55-1.11-5.18-6.14-3.62-11.23c1.58-5.14,5.75-8.4,9.3-7.28
						C1531.52,558.93,1533.15,563.96,1531.6,569.09z"/><path fill="#060606" d="M1530.01,643.72c-4.94,0-9.87-1.48-13.92-4.32c-1.36-0.96-1.7-2.83-0.74-4.2c0.96-1.36,2.84-1.7,4.2-0.74
						c4.65,3.26,10.87,4.13,16.23,2.28c1.56-0.54,3.29,0.29,3.83,1.87c0.54,1.57-0.29,3.29-1.87,3.83
						C1535.26,643.3,1532.64,643.72,1530.01,643.72z"/><path fill="#4a4ddc" d="M1306.41,811.6l-130.11,17.86c-24.62,3.36-47.3-13.87-50.66-38.49l-32.98-240.42
							c-3.36-24.65,13.87-47.33,38.49-50.7l130.07-17.86c24.62-3.36,47.33,13.87,50.7,38.49l32.94,240.45
							C1348.26,785.55,1331.03,808.23,1306.41,811.6z"/><path fill="#fff" d="M1161.75,802.54l-37.4-272.86c-0.83-6.08,3.42-11.68,9.5-12.51l145.97-20.01
							c6.08-0.83,11.68,3.42,12.51,9.5l37.4,272.86c0.83,6.08-3.42,11.68-9.5,12.51l-145.97,20.01
							C1168.18,812.86,1162.58,808.61,1161.75,802.54z"/><path fill="#ffd400" d="M1261.92,577.9c0.21,1.4,0.31,2.84,0.34,4.31l1.6,87.46c0.22,11.05-7.82,20.53-18.74,22.14
								c-10.94,1.61-21.36-5.15-24.36-15.78l-23.73-84.19c-5.42-19.3,7.32-38.98,27.16-41.91
								C1242.56,547.21,1259.29,560.04,1261.92,577.9z"/><circle cx="1252.03" cy="733.06" r="28.91" fill="#ffd400"/><path fill="#ffd400" d="M651.82,1968.91c0,0,51.69-38.17,47.68-59.36s-19.18-15.18-11.74-34.65
							c7.44-19.47,46.1-38.08,37.22-66.72s-34.07-16.32-44.1-38.08c-10.02-21.76-9.74-124.27-97.36-98.79
							s-22.62,102.22-26.92,108.81c-4.3,6.59-17.47,14.6-12.03,28.92c5.44,14.32,26.34,20.62,23.48,33.5
							c-2.86,12.89-15.46,36.37-3.44,55.26C576.67,1916.71,643.37,1943.51,651.82,1968.91z"/><path fill="#060f11" d="M875.96,2111.4c-0.13,0-0.27-0.01-0.4-0.03c-1.65-0.22-2.81-1.73-2.59-3.38
							c2.28-17.22-2.88-18.44-10.68-20.28c-2.52-0.59-5.11-1.21-7.62-2.4c-6.28-2.94-3.88-10.73-1.55-18.26
							c3.8-12.3,5.92-22.17-3.89-28.04c-10.16-6.06-24.53,3.13-38.43,12.02c-12.34,7.89-24.02,15.33-34.11,13.52
							c-12.02-2.14-11.87-22.28-11.69-45.61c0.18-23.64,0.39-50.44-11.77-59.11c-8.03-5.72-16.66-7.39-25.61-4.96
							c-14.87,4.03-29.41,19.06-38.91,40.21c-1.38,3.09-2.91,8.23-4.68,14.19c-5.88,19.79-14.77,49.7-33.95,55.43
							c-14.22,4.22-20.79-4.24-27.74-13.18c-5.81-7.47-12.39-15.94-25.02-19.46c-6.22-1.74-11.29-0.61-15.51,3.44
							c-10.88,10.44-12.43,36.59-10.93,42.99c2.56,10.66-14.98,28.56-18.53,32.04c-1.18,1.17-3.1,1.15-4.26-0.04
							c-1.17-1.19-1.15-3.1,0.04-4.26c7.8-7.67,18.19-20.91,16.89-26.35c-1.81-7.69-0.26-36.37,12.63-48.73
							c5.72-5.49,13.08-7.19,21.3-4.9c14.55,4.05,22.1,13.76,28.17,21.57c7.23,9.3,11.47,14.01,21.26,11.11
							c16.05-4.79,24.38-32.82,29.89-51.37c1.83-6.16,3.41-11.49,4.97-14.94c10.22-22.78,26.23-39.06,42.83-43.56
							c10.64-2.89,21.25-0.86,30.69,5.87c14.71,10.5,14.49,38.96,14.29,64.07c-0.14,17.99-0.29,38.38,6.72,39.63
							c7.79,1.41,18.98-5.75,29.8-12.66c15.45-9.88,31.42-20.1,44.77-12.12c14.66,8.77,9.78,24.55,6.56,35
							c-1.34,4.35-3.18,10.3-1.65,11.02c1.95,0.92,4.13,1.44,6.44,1.98c8.13,1.92,18.26,4.31,15.27,26.94
							C878.74,2110.3,877.45,2111.4,875.96,2111.4z"/><path fill="#ffc1a4" d="M1893.96,831.16l33.67,79.04c15.83,37.17-7.04,79.4-46.82,86.44l-76.06,13.47l-43.27-143.7
							L1893.96,831.16z"/><polygon fill="#f7b094" points="1900.42 846.31 1839.57 907.09 1831.36 846.31"/><path fill="#0081ff" d="M1914.78,839.71l-120.89,55.55l17.79-165.86h6.81c21.22,0,40.77,11.42,51.16,29.91L1914.78,839.71z"/><path fill="#060f11" d="M1585.26,2111.4c-1.34,0-2.56-0.9-2.91-2.26L1285.29,969.2c-0.42-1.61,0.55-3.26,2.16-3.68
									c1.62-0.42,3.26,0.55,3.68,2.16l297.06,1139.94c0.42,1.61-0.54,3.26-2.16,3.68
									C1585.76,2111.37,1585.51,2111.4,1585.26,2111.4z"/><path fill="#060f11" d="M2090.95,2111.4c-1.34,0-2.56-0.9-2.91-2.26L1790.98,969.2c-0.42-1.61,0.55-3.26,2.16-3.68
									c1.6-0.42,3.26,0.55,3.68,2.16l297.06,1139.94c0.42,1.61-0.54,3.26-2.16,3.68C2091.46,2111.37,2091.2,2111.4,2090.95,2111.4
									z"/><polyline fill="#ffc1a4" points="1868.31 1807.33 1860.63 1699.72 2004.97 1699.96 2012.54 1799.22"/><path fill="#0081ff" d="M1770.97,1987.06l247.76-46.52c3.61-0.66,6.59-3.11,8.04-6.45l-14.22-134.86l-144.23,8.1
											l-10.38,52.72l-78.35,86.27l-20.36,25.07C1755.13,1979.5,1762.06,1988.71,1770.97,1987.06z"/><path fill="#060606" d="M1770.97,1987.06l247.76-46.52c3.61-0.66,6.59-3.11,8.04-6.45l-2.67-25.3l-239.1,50.45
											c-8.91,1.68-9.31-5.3-5.2-13.38l-20.57,25.53C1755.13,1979.5,1762.06,1988.71,1770.97,1987.06z"/><path d="M1899.76,1873.55c-0.27,0-0.54-0.03-0.81-0.1l-41.83-10.07c-1.85-0.45-2.99-2.31-2.54-4.16
											c0.44-1.85,2.27-2.99,4.16-2.54l41.83,10.07c1.85,0.45,2.99,2.31,2.54,4.16
											C1902.72,1872.49,1901.31,1873.55,1899.76,1873.55z"/><path d="M1891.34,1890.22c-0.28,0-0.57-0.03-0.85-0.11l-39.02-9.91c-1.84-0.47-2.96-2.34-2.49-4.19
											c0.46-1.85,2.35-2.96,4.19-2.49l39.02,9.91c1.84,0.47,2.96,2.34,2.49,4.19
											C1894.28,1889.19,1892.88,1890.22,1891.34,1890.22z"/><path d="M1970.06,1937.07c-1.21,0-2.38-0.64-3.01-1.76c-0.62-1.1-14.94-27.23-4.57-51.07
											c11.61-26.7,42.87-29.03,55.85-28.8c1.9,0.03,3.41,1.61,3.38,3.51c-0.03,1.88-1.57,3.38-3.44,3.38c-0.02,0-0.04,0-0.06,0
											c-14.28-0.26-39.81,2.59-49.4,24.65c-8.99,20.67,4.13,44.73,4.27,44.97c0.92,1.66,0.33,3.76-1.34,4.68
											C1971.2,1936.93,1970.63,1937.07,1970.06,1937.07z"/><polygon points="2008.35 1744.04 1866.32 1779.4 1864.7 1756.95 2006.16 1743.91"/><path fill="#060f11" d="M2054.19,1970.38h-505.68c-1.67,0-3.01-1.35-3.01-3.01s1.35-3.01,3.01-3.01h505.68
									c1.67,0,3.01,1.35,3.01,3.01S2055.85,1970.38,2054.19,1970.38z"/><path fill="#060f11" d="M1979.87,1685.11h-505.71c-1.67,0-3.01-1.35-3.01-3.01s1.35-3.01,3.01-3.01h505.71
									c1.67,0,3.01,1.35,3.01,3.01S1981.54,1685.11,1979.87,1685.11z"/><path fill="#060f11" d="M1905.53,1399.87h-505.68c-1.67,0-3.01-1.35-3.01-3.01s1.35-3.01,3.01-3.01h505.68
									c1.67,0,3.01,1.35,3.01,3.01S1907.19,1399.87,1905.53,1399.87z"/><path fill="#060f11" d="M1831.21,1114.63h-505.7c-1.67,0-3.01-1.35-3.01-3.01c0-1.66,1.35-3.01,3.01-3.01h505.7
									c1.67,0,3.01,1.35,3.01,3.01C1834.22,1113.28,1832.87,1114.63,1831.21,1114.63z"/><polygon fill="#ff73ed" points="1618.87 1046.5 1835.39 1761.65 2054.19 1743.91 1847.76 1049.11"/><polygon fill="#060606" points="1695.68 1118.65 1688.37 1276.06 1651.05 1152.76"/><path fill="#fff" d="M1872.82,1663.5c-1.28,0-2.47-0.82-2.88-2.11L1712.1,1160.6c-0.5-1.59,0.38-3.28,1.97-3.78
									c1.58-0.5,3.28,0.38,3.78,1.97l157.85,500.79c0.5,1.59-0.38,3.28-1.97,3.78C1873.43,1663.46,1873.12,1663.5,1872.82,1663.5z
									"/><polyline fill="#ffc1a4" points="1887.06 1466.02 1779.3 1461.05 1796.43 1317.73 1895.9 1321.83"/><path fill="#0081ff" d="M2054.16,1583.73l-17.19-251.5c-0.23-3.66-2.32-6.91-5.47-8.74l-135.6-1.67l-8.84,144.19l51.15,16.48
											l76.5,87.91l22.51,23.15C2044.8,1598.58,2054.76,1592.78,2054.16,1583.73z"/><path fill="#060606" d="M2054.16,1583.73l-17.19-251.5c-0.23-3.66-2.32-6.91-5.47-8.74l-25.44-0.31l22.11,243.36
											c0.63,9.04-6.35,8.62-13.9,3.6l22.95,23.42C2044.8,1598.58,2054.76,1592.78,2054.16,1583.73z"/><path d="M1938.2,1485.95c-0.4,0-0.8-0.07-1.19-0.21c-1.79-0.66-2.7-2.64-2.04-4.42l14.89-40.37
											c0.66-1.79,2.67-2.7,4.42-2.04c1.79,0.66,2.7,2.64,2.04,4.42l-14.89,40.37C1940.92,1485.09,1939.6,1485.95,1938.2,1485.95
											z"/><path d="M1954.25,1493.48c-0.41,0-0.83-0.07-1.23-0.23c-1.78-0.68-2.66-2.67-1.98-4.45l14.41-37.59
											c0.68-1.78,2.67-2.66,4.45-1.98c1.78,0.68,2.66,2.67,1.98,4.45l-14.41,37.59
											C1956.94,1492.64,1955.64,1493.48,1954.25,1493.48z"/><path d="M1999.7,1387.83c-8.07,0-17-1.54-25.23-6.34c-25.16-14.66-23.81-46.03-22.06-58.84c0.26-1.88,1.98-3.21,3.88-2.95
											c1.88,0.26,3.2,1.99,2.95,3.88c-1.94,14.2-2.09,39.84,18.7,51.95c19.55,11.39,44.9,1.13,45.16,1.03
											c1.76-0.72,3.77,0.11,4.5,1.87c0.73,1.76-0.11,3.77-1.87,4.5C2024.99,1383.24,2013.63,1387.83,1999.7,1387.83z"/><polygon points="1840.6 1319.54 1859.1 1464.72 1836.61 1463.7 1840.22 1321.7"/><path fill="#ff73ed" d="M1856.1,1294.56l-17.89,198.59l-384.88-3.26c-96.35-0.82-155.6-105.67-106.64-188.61l151.42-256.46
									l241.15-8.66l-129.61,245.38L1856.1,1294.56z"/><path fill="#fff" d="M1609.65,1284.54c-0.47,0-0.96-0.11-1.4-0.35c-1.47-0.78-2.04-2.6-1.26-4.07l100.15-189.61
									c0.77-1.47,2.6-2.04,4.07-1.26c1.47,0.78,2.04,2.6,1.26,4.07l-100.15,189.61
									C1611.78,1283.95,1610.73,1284.54,1609.65,1284.54z"/><path fill="#0081ff" d="M1820.9,729.66l-266.59-4.55c-42.26-0.72-76.81,33.5-76.49,75.76l1.94,258.19l376.35,5.03
									L1820.9,729.66z"/><path fill="#fff" d="M1847.85,1711.06c-1.44,0-2.71-1.03-2.97-2.5c-0.29-1.64,0.81-3.2,2.45-3.49l148.83-25.95
							c1.66-0.29,3.2,0.81,3.49,2.45c0.29,1.64-0.81,3.2-2.45,3.49l-148.83,25.95C1848.2,1711.05,1848.02,1711.06,1847.85,1711.06z"/><path fill="#fff" d="M1797.97,1407.09c-0.01,0-0.02,0-0.03,0l-281.65-3.15c-22.09-0.25-41.96-11.77-53.14-30.83
							c-11.18-19.06-11.55-42.02-0.99-61.42l113.56-208.71c0.79-1.46,2.62-2.01,4.09-1.21c1.46,0.8,2.01,2.63,1.21,4.09
							l-113.56,208.71c-9.54,17.53-9.2,38.28,0.9,55.49c10.1,17.22,28.05,27.63,48.01,27.85l281.65,3.15c1.67,0.02,3,1.38,2.98,3.05
							C1800.96,1405.76,1799.62,1407.09,1797.97,1407.09z"/><path fill="#fff" d="M1494.6,1148.67c-0.82,0-1.63-0.33-2.23-0.98c-5.55-6.09-7.64-15.43-5.45-24.37
							c1.79-7.3,6.31-14.44,13.09-20.66c5.9-5.42,12.72-9.57,19.3-13.57c1.43-0.87,3.28-0.41,4.14,1.01
							c0.87,1.42,0.42,3.28-1.01,4.14c-6.34,3.86-12.89,7.84-18.36,12.86c-5.9,5.41-9.81,11.52-11.31,17.66
							c-1.72,7.01-0.17,14.25,4.05,18.87c1.12,1.23,1.03,3.14-0.2,4.26C1496.06,1148.41,1495.33,1148.67,1494.6,1148.67z"/><path fill="#fff" d="M1801.28,1183.82c-5.64,0-11.12-1.72-15.85-5.02c-6.17-4.32-10.24-10.78-11.47-18.21l-4.78-28.88
							c-0.13-0.8,0.06-1.63,0.55-2.28c0.48-0.66,1.21-1.09,2.02-1.2l47.68-6.49c0.84-0.12,1.73,0.14,2.39,0.72
							c0.65,0.57,1.03,1.39,1.03,2.25c0.03,0.58,0.51,4.08,5.5,24.87c1.79,7.47,0.47,15.13-3.7,21.57
							c-4.17,6.44-10.62,10.77-18.17,12.19C1804.74,1183.66,1803.01,1183.82,1801.28,1183.82z M1775.63,1133.79l4.28,25.82
							c0.96,5.81,4.15,10.88,8.98,14.25c4.83,3.38,10.67,4.64,16.47,3.55c5.9-1.11,10.95-4.5,14.22-9.54
							c3.27-5.04,4.3-11.04,2.9-16.89c-3.19-13.27-4.58-19.67-5.19-22.87L1775.63,1133.79z M1822.85,1124.72h0.03H1822.85z"/><path fill="#ffc1a4" d="M1477.82,916.35l-34.49,47.51c-27.93,38.48-81.53,47.48-120.51,20.27L1124.9,836.15l48.61-106.75
							l184.79,119.15l33.65-39.53L1477.82,916.35z"/><path fill="#0081ff" d="M1570.42,725.38l4.34,55.61c2.99,19.8-3.21,39.88-16.85,54.55l-87.53,94.16l-99.7-111.32l36.1-53.76
							c17.14-25.52,45.86-40.83,76.59-40.83L1570.42,725.38z"/><path fill="#fff" d="M1836.6,878.65c-1.51,0-2.82-1.14-2.99-2.68l-10.5-92.79c-0.19-1.65,1-3.15,2.65-3.33
							c1.63-0.18,3.15,1,3.33,2.66l10.5,92.79c0.19,1.65-1,3.15-2.65,3.33C1836.83,878.64,1836.72,878.65,1836.6,878.65z"/><path fill="#fff" d="M1477.81,923.65c-0.69,0-1.39-0.24-1.95-0.72c-1.27-1.08-1.42-2.98-0.35-4.25l69.76-82.1
							c1.08-1.27,2.99-1.42,4.25-0.35c1.27,1.08,1.42,2.98,0.35,4.25l-69.76,82.1C1479.52,923.29,1478.67,923.65,1477.81,923.65z"/><path fill="#fff" d="M1460.63,874c-0.81,0-1.63-0.33-2.22-0.98l-56.09-61.3c-1.12-1.23-1.04-3.14,0.19-4.26
							c1.23-1.12,3.13-1.04,4.26,0.19l56.09,61.3c1.12,1.23,1.04,3.14-0.19,4.26C1462.09,873.74,1461.36,874,1460.63,874z"/><path fill="#fff" d="M1861.67,850.77c-1.16,0-2.27-0.68-2.77-1.82c-0.66-1.53,0.04-3.3,1.57-3.96l32.45-14.02
							c1.51-0.66,3.3,0.04,3.96,1.57c0.66,1.53-0.04,3.3-1.57,3.96l-32.45,14.02C1862.48,850.69,1862.07,850.77,1861.67,850.77z"/><g><path fill="#060f11" d="M663.65,2100.51c-1.65,0-2.99-1.32-3.01-2.97c-0.03-2.14-3.76-215.31-46.57-318.94
								c-0.64-1.54,0.1-3.3,1.64-3.94c1.54-0.64,3.3,0.1,3.94,1.64c43.24,104.69,46.99,319,47.03,321.15
								c0.02,1.66-1.31,3.03-2.97,3.06C663.68,2100.51,663.66,2100.51,663.65,2100.51z"/><path fill="#060f11" d="M621.68,1804.29c-5.29,0-14.86-1.57-23.5-11.28c-1.1-1.24-0.99-3.15,0.25-4.26
								c1.24-1.1,3.15-0.99,4.26,0.25c8.55,9.62,18.04,9.47,20.89,9.17c7.09-8.27,7.63-24.83,7.63-25c0.05-1.64,1.39-2.93,3.01-2.93
								c0.03,0,0.05,0,0.08,0c1.66,0.05,2.97,1.43,2.93,3.1c-0.02,0.82-0.66,20.11-9.99,29.75c-0.41,0.43-0.94,0.72-1.52,0.85
								C625.54,1803.98,624.03,1804.29,621.68,1804.29z"/><path fill="#060f11" d="M638.23,1861.49c-0.84,0-1.68-0.35-2.27-1.04c-1.09-1.26-0.96-3.16,0.3-4.25
								c15.43-13.41,17.28-33.73,17.3-33.93c0.14-1.66,1.55-2.89,3.25-2.76c1.66,0.14,2.89,1.58,2.76,3.24
								c-0.07,0.93-2.02,22.93-19.35,38C639.64,1861.24,638.93,1861.49,638.23,1861.49z"/><path fill="#060f11" d="M644.65,1903.64c-0.06,0-0.11,0-0.17,0c-0.87-0.05-21.58-1.44-35.99-23.95
								c-0.89-1.4-0.49-3.27,0.92-4.16c1.41-0.9,3.27-0.49,4.16,0.91c12.68,19.81,30.5,21.14,31.25,21.18
								c1.66,0.1,2.93,1.53,2.83,3.19C647.55,1902.4,646.23,1903.64,644.65,1903.64z"/></g><g><path fill="#ffc1a4" d="M1182.25,672.89l-7.85,57.09l-49.5,106.15c0,0-67.82-39.97-70.26-53.02
							c-2.39-12.82,7.59-24.42,12.96-29.41c-6.24-7.47-11.23-15-11.27-19.99c-0.06-10.45,11.24-20.93,15.97-24.89
							c-1.82-4.42-2.79-8.35-2.32-11.17c1.91-11.05,16.66-19.9,21.15-22.34c-0.29-23.66,23.92-22.24,23.92-22.24l18.92,45.11
							l9.54-34.33c3.23-7.53,10.61-12.21,18.52-12.21c1.35,0,2.7,0.13,4.05,0.41C1175.88,654.06,1182.75,662.91,1182.25,672.89z"/></g><g><path fill="#060606" d="M1124.9,839.15c-0.52,0-1.05-0.13-1.53-0.42c-11.52-6.79-69.14-41.36-71.69-55.06
							c-2.44-13.08,6.26-24.44,11.84-30.19c-6.83-8.52-10.17-15-10.2-19.75c-0.06-10.32,8.97-20.13,15.41-25.8
							c-1.62-4.43-2.18-7.97-1.71-10.77c1.96-11.3,15.17-20.15,21.13-23.62c0.26-6.9,2.54-12.46,6.81-16.53
							c7.94-7.58,19.78-6.98,20.28-6.95c1.15,0.07,2.16,0.78,2.6,1.84l15.56,37.1l7.22-25.96c0.03-0.13,0.08-0.26,0.13-0.38
							c3.66-8.53,12.01-14.03,21.28-14.03c1.6,0,3.17,0.16,4.67,0.47c11.33,2.32,19.14,12.39,18.56,23.94l-4.7,34.26
							c-0.23,1.65-1.79,2.8-3.4,2.58c-1.65-0.23-2.8-1.75-2.58-3.4l4.67-34c0.41-8.29-5.38-15.75-13.78-17.48
							c-1.1-0.23-2.26-0.35-3.45-0.35c-6.79,0-12.92,4-15.66,10.2l-9.49,34.13c-0.34,1.24-1.43,2.12-2.72,2.2
							c-1.3,0.07-2.47-0.66-2.97-1.84l-18.14-43.24c-3.11,0.16-9.54,1.04-13.97,5.29c-3.35,3.21-5.01,7.88-4.94,13.87
							c0.01,1.12-0.59,2.15-1.57,2.68c-8.61,4.69-18.28,12.47-19.62,20.21c-0.23,1.39-0.05,4.19,2.14,9.51
							c0.5,1.22,0.15,2.62-0.86,3.46c-3.51,2.93-14.95,13.2-14.89,22.55c0.01,2.05,1.4,7.12,10.56,18.08
							c1.03,1.23,0.92,3.05-0.26,4.14c-3.4,3.16-14.33,14.44-12.05,26.65c1.5,8.07,41.15,34.67,68.82,50.97
							c1.43,0.84,1.91,2.69,1.07,4.13C1126.94,838.62,1125.93,839.15,1124.9,839.15z"/></g><g><path fill="#060606" d="M1118.28,719.36c-0.73,0-1.46-0.26-2.04-0.79c-12.23-11.2-27.16-40.65-27.79-41.9
							c-0.75-1.49-0.15-3.3,1.34-4.05c1.49-0.75,3.3-0.15,4.05,1.33c0.15,0.3,15.06,29.72,26.48,40.17
							c1.23,1.12,1.31,3.03,0.19,4.26C1119.9,719.03,1119.09,719.36,1118.28,719.36z"/></g><g><path fill="#060606" d="M1094.72,736.45c-0.65,0-1.3-0.21-1.85-0.64c-12.52-9.8-22.62-24.67-23.05-25.3
							c-0.93-1.38-0.57-3.25,0.81-4.18c1.38-0.93,3.25-0.57,4.19,0.81c0.1,0.15,10.01,14.73,21.76,23.92
							c1.31,1.03,1.54,2.92,0.52,4.23C1096.5,736.05,1095.61,736.45,1094.72,736.45z"/></g><g><path fill="#060606" d="M1091.14,774.91c-0.33,0-0.67-0.06-1.01-0.17c-16.68-5.9-24.77-18.91-25.11-19.47
							c-0.87-1.42-0.42-3.28,1.01-4.14c1.41-0.87,3.27-0.42,4.14,1c0.12,0.19,7.43,11.78,21.98,16.93c1.57,0.55,2.39,2.28,1.84,3.85
							C1093.55,774.14,1092.38,774.91,1091.14,774.91z"/></g><g><path fill="#fff" d="M1521.84,508.26c-11.5,0-23.01-3.66-32.32-10.42c-2.16-1.56-4.85-3.75-6.59-6.83
						c-1.99-3.54-2.22-7.56-0.63-10.75c0.74-1.49,2.56-2.1,4.04-1.35c1.49,0.74,2.1,2.55,1.35,4.04c-0.68,1.36-0.48,3.36,0.49,5.1
						c1.16,2.06,3.21,3.7,4.87,4.91c9.77,7.09,22.25,10.36,34.25,8.96c1.74-0.2,3.15,0.99,3.34,2.65c0.19,1.65-0.99,3.15-2.64,3.34
						C1525.96,508.14,1523.9,508.26,1521.84,508.26z"/></g><g><path fill="#fff" d="M1698.43,574.04c-0.59,0-1.19-0.18-1.72-0.54c-1.37-0.95-1.7-2.83-0.75-4.2c5.9-8.49,8.78-18.84,8.1-29.15
						c-0.68-10.31-4.89-20.2-11.86-27.84c-1.12-1.23-1.03-3.14,0.2-4.26c1.23-1.12,3.14-1.04,4.26,0.2
						c7.89,8.64,12.65,19.83,13.42,31.5c0.77,11.67-2.48,23.39-9.17,32.99C1700.32,573.59,1699.39,574.04,1698.43,574.04z"/></g><g><path fill="#060f11" d="M813.74,2110.24c-0.2,0-0.4-0.02-0.6-0.06c-1.63-0.33-2.68-1.92-2.36-3.55
				c2.46-12.14,8.18-23.4,16.54-32.55c1.12-1.23,3.03-1.31,4.26-0.19c1.23,1.12,1.32,3.03,0.19,4.26
				c-7.62,8.34-12.84,18.61-15.08,29.68C816.4,2109.25,815.14,2110.24,813.74,2110.24z"/></g><g><path fill="#060f11" d="M721.57,2108.74c-1.51,0-2.81-1.13-2.99-2.66c-4.22-35.54-0.88-72.4,9.67-106.6
				c0.49-1.59,2.18-2.48,3.77-1.99c1.59,0.49,2.48,2.18,1.99,3.77c-10.3,33.4-13.56,69.4-9.44,104.11c0.2,1.65-0.99,3.15-2.64,3.35
				C721.81,2108.73,721.69,2108.74,721.57,2108.74z"/></g><g><path fill="#060f11" d="M632.05,2104.47c-0.75,0-1.49-0.28-2.08-0.83c-10.42-9.92-19.06-21.42-25.67-34.18
				c-0.77-1.48-0.19-3.3,1.29-4.06c1.46-0.77,3.29-0.19,4.06,1.29c6.31,12.17,14.55,23.13,24.48,32.59c1.2,1.15,1.25,3.06,0.1,4.26
				C633.64,2104.16,632.85,2104.47,632.05,2104.47z"/></g><g><path fill="#060f11" d="M908.72,2099.12c-0.02,0-0.04,0-0.07,0c-1.66-0.04-2.98-1.42-2.95-3.08c0.58-26.62,10.15-52.66,26.93-73.33
				c1.05-1.29,2.95-1.49,4.24-0.44c1.29,1.05,1.49,2.95,0.44,4.24c-15.94,19.64-25.03,44.38-25.58,69.66
				C911.7,2097.81,910.36,2099.12,908.72,2099.12z"/></g><g><path fill="#060f11" d="M947.02,2093.85c-0.16,0-0.32-0.01-0.48-0.04c-1.64-0.27-2.76-1.81-2.5-3.46
				c1.57-9.76,5.15-19.37,10.33-27.78c0.87-1.42,2.72-1.86,4.15-0.99c1.42,0.87,1.86,2.73,0.99,4.15
				c-4.77,7.75-8.06,16.59-9.51,25.58C949.75,2092.8,948.47,2093.85,947.02,2093.85z"/></g><g><path fill="#060f11" d="M848.17,2017.86c-1.34,0-2.56-0.9-2.91-2.26c-2.14-8.23-5.27-16.2-9.31-23.68
				c-0.79-1.47-0.24-3.29,1.22-4.08c1.47-0.79,3.3-0.24,4.08,1.22c4.26,7.9,7.57,16.32,9.83,25.02c0.42,1.61-0.55,3.26-2.16,3.68
				C848.67,2017.83,848.42,2017.86,848.17,2017.86z"/></g></svg>